<mxfile host="app.diagrams.net" modified="2024-03-25T04:12:28.202Z" agent="Mozilla/5.0 (Macintosh; Intel Mac OS X 10_15_7) AppleWebKit/537.36 (KHTML, like Gecko) Chrome/122.0.0.0 Safari/537.36" etag="-3sXKMGkdw_lyJNRfdAz" version="24.0.7" type="github">
  <diagram name="Page-1" id="c7558073-3199-34d8-9f00-42111426c3f3">
    <mxGraphModel dx="1914" dy="995" grid="1" gridSize="10" guides="1" tooltips="1" connect="1" arrows="1" fold="1" page="1" pageScale="1" pageWidth="826" pageHeight="1169" background="none" math="0" shadow="0">
      <root>
        <mxCell id="0" />
        <mxCell id="1" parent="0" />
        <mxCell id="2" value="&lt;p style=&quot;margin: 0px; margin-top: 4px; text-align: center; text-decoration: underline;&quot;&gt;&lt;span style=&quot;background-color: initial;&quot;&gt;Opening&lt;/span&gt;&lt;strong&gt;&amp;nbsp;&lt;/strong&gt;&lt;span style=&quot;background-color: initial;&quot;&gt;[2]&lt;/span&gt;&lt;strong&gt;&lt;br&gt;&lt;/strong&gt;&lt;/p&gt;&lt;hr&gt;&lt;p style=&quot;margin: 0px; margin-left: 8px;&quot;&gt;&lt;/p&gt;&lt;div class=&quot;lake-content&quot;&gt;&lt;p style=&quot;margin: 0px; padding: 0px; min-height: 24px;&quot; class=&quot;ne-p&quot; id=&quot;u4ac3bd98&quot;&gt;&lt;br&gt;&lt;/p&gt;&lt;/div&gt;" style="verticalAlign=middle;align=center;overflow=fill;fontSize=12;fontFamily=Helvetica;html=1;rounded=1;fontStyle=1;strokeWidth=3;fillColor=#E6FFCC" parent="1" vertex="1">
          <mxGeometry x="395" y="236" width="110" height="90" as="geometry" />
        </mxCell>
        <mxCell id="5" value="DB Wrapper Status: Nomal [1]&#xa;仅Normal状态可以读" style="shape=process;whiteSpace=wrap;align=center;verticalAlign=middle;size=0.0475;fontStyle=1;strokeWidth=3;fillColor=#FFCCCC" parent="1" vertex="1">
          <mxGeometry x="360" y="391" width="410" height="50" as="geometry" />
        </mxCell>
        <mxCell id="6" value="&lt;p style=&quot;margin: 0px; margin-top: 4px; text-align: center; text-decoration: underline;&quot;&gt;&lt;/p&gt;&lt;p style=&quot;margin: 0px; margin-left: 8px;&quot;&gt;&lt;u&gt;&lt;span style=&quot;background-color: initial;&quot;&gt;Closed&lt;/span&gt;&lt;strong&gt;&amp;nbsp;[6]&lt;/strong&gt;&lt;span style=&quot;background-color: initial;&quot;&gt;&amp;nbsp;&lt;/span&gt;&lt;/u&gt;&lt;br&gt;&lt;/p&gt;&lt;p style=&quot;margin: 0px; margin-left: 8px;&quot;&gt;&lt;br&gt;&lt;/p&gt;&lt;p style=&quot;margin: 0px; margin-left: 8px;&quot;&gt;&lt;u&gt;&lt;span style=&quot;background-color: initial;&quot;&gt;&lt;br&gt;&lt;/span&gt;&lt;/u&gt;&lt;/p&gt;" style="verticalAlign=middle;align=center;overflow=fill;fontSize=12;fontFamily=Helvetica;html=1;rounded=1;fontStyle=1;strokeWidth=3;fillColor=#E6FFCC" parent="1" vertex="1">
          <mxGeometry x="549" y="146" width="110" height="90" as="geometry" />
        </mxCell>
        <mxCell id="7" value="&lt;p style=&quot;margin: 0px; margin-top: 4px; text-align: center; text-decoration: underline;&quot;&gt;&lt;/p&gt;&lt;p style=&quot;margin: 0px; margin-left: 8px;&quot;&gt;&lt;span style=&quot;background-color: initial;&quot;&gt;&lt;u&gt;InFullReplicate&lt;/u&gt;&lt;/span&gt;&lt;strong&gt;&lt;u&gt;&amp;nbsp;[5]&lt;/u&gt;&lt;br&gt;&lt;/strong&gt;&lt;br&gt;&lt;/p&gt;" style="verticalAlign=middle;align=center;overflow=fill;fontSize=12;fontFamily=Helvetica;html=1;rounded=1;fontStyle=1;strokeWidth=3;fillColor=#E6FFCC" parent="1" vertex="1">
          <mxGeometry x="850.5" y="362" width="149" height="99" as="geometry" />
        </mxCell>
        <mxCell id="10" value="&lt;p style=&quot;margin: 0px; margin-top: 4px; text-align: center; text-decoration: underline;&quot;&gt;&lt;span style=&quot;background-color: initial;&quot;&gt;NeedDeltaReplicate&lt;/span&gt;&lt;strong&gt;&amp;nbsp;[4]&lt;br&gt;&lt;/strong&gt;&lt;/p&gt;&lt;hr&gt;&lt;p style=&quot;margin: 0px; margin-left: 8px;&quot;&gt;&lt;/p&gt;&lt;div class=&quot;lake-content&quot;&gt;&lt;p style=&quot;margin: 0; padding: 0; min-height: 24px&quot; class=&quot;ne-p&quot; id=&quot;u06c89a7e&quot;&gt;&lt;br&gt;&lt;/p&gt;&lt;/div&gt;" style="verticalAlign=middle;align=center;overflow=fill;fontSize=12;fontFamily=Helvetica;html=1;rounded=1;fontStyle=1;strokeWidth=3;fillColor=#E6FFCC" parent="1" vertex="1">
          <mxGeometry x="240" y="540" width="200" height="90" as="geometry" />
        </mxCell>
        <mxCell id="11" value="&lt;p style=&quot;margin: 0px; margin-top: 4px; text-align: center; text-decoration: underline;&quot;&gt;&lt;/p&gt;&lt;p style=&quot;margin: 0px; margin-left: 8px;&quot;&gt;&lt;span style=&quot;text-decoration-line: underline; background-color: initial;&quot;&gt;NeedFullReplicate[3]&amp;nbsp;&lt;/span&gt;&lt;/p&gt;&lt;p style=&quot;margin: 0px; margin-left: 8px;&quot;&gt;&lt;br&gt;&lt;/p&gt;" style="verticalAlign=middle;align=center;overflow=fill;fontSize=12;fontFamily=Helvetica;html=1;rounded=1;fontStyle=1;strokeWidth=3;fillColor=#E6FFCC" parent="1" vertex="1">
          <mxGeometry x="222.5" y="820" width="136.5" height="90" as="geometry" />
        </mxCell>
        <mxCell id="56" value="" style="edgeStyle=elbowEdgeStyle;elbow=horizontal;strokeColor=#990000;strokeWidth=2" parent="1" source="2" target="5" edge="1">
          <mxGeometry width="100" height="100" relative="1" as="geometry">
            <mxPoint x="209" y="500" as="sourcePoint" />
            <mxPoint x="309" y="400" as="targetPoint" />
            <Array as="points">
              <mxPoint x="439" y="360" />
            </Array>
          </mxGeometry>
        </mxCell>
        <mxCell id="57" value="Master Shard" style="text;spacingTop=-5;align=center" parent="1" vertex="1">
          <mxGeometry x="465" y="341" width="30" height="20" as="geometry" />
        </mxCell>
        <mxCell id="58" value="" style="edgeStyle=elbowEdgeStyle;elbow=horizontal;strokeColor=#990000;strokeWidth=2" parent="1" source="5" target="6" edge="1">
          <mxGeometry width="100" height="100" relative="1" as="geometry">
            <mxPoint x="539" y="370" as="sourcePoint" />
            <mxPoint x="639" y="270" as="targetPoint" />
            <Array as="points">
              <mxPoint x="599" y="310" />
            </Array>
          </mxGeometry>
        </mxCell>
        <mxCell id="60" value="&#xa;RemoveShard" style="text;spacingTop=-5;align=center" parent="1" vertex="1">
          <mxGeometry x="610.5" y="280" width="86" height="31" as="geometry" />
        </mxCell>
        <mxCell id="62" value="&#xa;RemoveShard" style="text;spacingTop=-5;align=center" parent="1" vertex="1">
          <mxGeometry x="610.5" y="100" width="126" height="20" as="geometry" />
        </mxCell>
        <mxCell id="90" value="slave 和 主 fetch_ts 延迟超过30s。&#xa;" style="text;spacingTop=-5;align=center" parent="1" vertex="1">
          <mxGeometry x="495" y="470" width="30" height="20" as="geometry" />
        </mxCell>
        <mxCell id="92" value="" style="edgeStyle=elbowEdgeStyle;elbow=horizontal;strokeColor=#990000;strokeWidth=2;entryX=0.841;entryY=-0.014;entryDx=0;entryDy=0;entryPerimeter=0;" parent="1" source="5" target="10" edge="1">
          <mxGeometry width="100" height="100" relative="1" as="geometry">
            <mxPoint x="189.0000000000001" y="500" as="sourcePoint" />
            <mxPoint x="409" y="510" as="targetPoint" />
            <Array as="points">
              <mxPoint x="409" y="470" />
            </Array>
          </mxGeometry>
        </mxCell>
        <mxCell id="93" value="" style="edgeStyle=elbowEdgeStyle;elbow=horizontal;strokeColor=#990000;strokeWidth=2;exitX=0.75;exitY=0;exitDx=0;exitDy=0;" parent="1" source="10" target="5" edge="1">
          <mxGeometry width="100" height="100" relative="1" as="geometry">
            <mxPoint x="389" y="510" as="sourcePoint" />
            <mxPoint x="299" y="410" as="targetPoint" />
            <Array as="points">
              <mxPoint x="389" y="470" />
            </Array>
          </mxGeometry>
        </mxCell>
        <mxCell id="QbPGDWv7qYdjSWNrfvIs-99" value="" style="edgeStyle=elbowEdgeStyle;elbow=horizontal;strokeColor=#990000;strokeWidth=2;exitX=0;exitY=0.75;exitDx=0;exitDy=0;entryX=0;entryY=0.75;entryDx=0;entryDy=0;" edge="1" parent="1" source="2" target="10">
          <mxGeometry width="100" height="100" relative="1" as="geometry">
            <mxPoint x="360" y="336" as="sourcePoint" />
            <mxPoint x="50" y="680" as="targetPoint" />
            <Array as="points">
              <mxPoint x="60" y="350" />
            </Array>
          </mxGeometry>
        </mxCell>
        <mxCell id="QbPGDWv7qYdjSWNrfvIs-102" value="1. slave： open恢复&#xa;&#xa;" style="text;spacingTop=-5;align=left;" vertex="1" parent="1">
          <mxGeometry x="180" y="313" width="170" height="27" as="geometry" />
        </mxCell>
        <mxCell id="QbPGDWv7qYdjSWNrfvIs-111" value="&lt;p style=&quot;margin: 0px; margin-top: 4px; text-align: center; text-decoration: underline;&quot;&gt;&lt;/p&gt;&lt;p style=&quot;margin: 0px; margin-left: 8px;&quot;&gt;&lt;strong&gt;DeltaTask&lt;br&gt;&lt;/strong&gt;&lt;br&gt;&lt;/p&gt;" style="verticalAlign=middle;align=center;overflow=fill;fontSize=12;fontFamily=Helvetica;html=1;rounded=1;fontStyle=1;strokeWidth=3;fillColor=#99FFFF;" vertex="1" parent="1">
          <mxGeometry x="70" y="366.5" width="149" height="73.5" as="geometry" />
        </mxCell>
        <mxCell id="QbPGDWv7qYdjSWNrfvIs-112" value="" style="edgeStyle=elbowEdgeStyle;elbow=vertical;strokeColor=#990000;strokeWidth=2;exitX=1;exitY=0.25;exitDx=0;exitDy=0;" edge="1" parent="1" source="QbPGDWv7qYdjSWNrfvIs-111">
          <mxGeometry width="100" height="100" relative="1" as="geometry">
            <mxPoint x="230" y="390" as="sourcePoint" />
            <mxPoint x="360" y="390" as="targetPoint" />
            <Array as="points">
              <mxPoint x="279" y="390" />
            </Array>
          </mxGeometry>
        </mxCell>
        <mxCell id="QbPGDWv7qYdjSWNrfvIs-113" value="" style="edgeStyle=elbowEdgeStyle;elbow=vertical;strokeColor=#990000;strokeWidth=2;entryX=1.007;entryY=0.878;entryDx=0;entryDy=0;entryPerimeter=0;exitX=0;exitY=0.75;exitDx=0;exitDy=0;" edge="1" parent="1" source="5" target="QbPGDWv7qYdjSWNrfvIs-111">
          <mxGeometry width="100" height="100" relative="1" as="geometry">
            <mxPoint x="326" y="431" as="sourcePoint" />
            <mxPoint x="235" y="431" as="targetPoint" />
            <Array as="points">
              <mxPoint x="284" y="431" />
            </Array>
          </mxGeometry>
        </mxCell>
        <mxCell id="QbPGDWv7qYdjSWNrfvIs-115" value="&#xa;1.上次请求master有新数据；&#xa;2.无新数据，超过1s没有delta过" style="text;spacingTop=-5;align=left;" vertex="1" parent="1">
          <mxGeometry x="215" y="450.5" width="180" height="59" as="geometry" />
        </mxCell>
        <mxCell id="QbPGDWv7qYdjSWNrfvIs-116" value="" style="edgeStyle=elbowEdgeStyle;strokeColor=#990000;strokeWidth=2;exitX=-0.009;exitY=0.428;exitDx=0;exitDy=0;entryX=0.572;entryY=0.997;entryDx=0;entryDy=0;entryPerimeter=0;elbow=vertical;exitPerimeter=0;" edge="1" parent="1" source="10" target="QbPGDWv7qYdjSWNrfvIs-111">
          <mxGeometry width="100" height="100" relative="1" as="geometry">
            <mxPoint x="399" y="520" as="sourcePoint" />
            <mxPoint x="150" y="460" as="targetPoint" />
            <Array as="points">
              <mxPoint x="200" y="580" />
            </Array>
          </mxGeometry>
        </mxCell>
        <mxCell id="QbPGDWv7qYdjSWNrfvIs-121" value="" style="edgeStyle=orthogonalEdgeStyle;elbow=horizontal;strokeColor=#990000;strokeWidth=2;exitX=1;exitY=0.5;exitDx=0;exitDy=0;entryX=0;entryY=0.5;entryDx=0;entryDy=0;" edge="1" parent="1" source="11" target="QbPGDWv7qYdjSWNrfvIs-138">
          <mxGeometry width="100" height="100" relative="1" as="geometry">
            <mxPoint x="460" y="246" as="sourcePoint" />
            <mxPoint x="250" y="543" as="targetPoint" />
          </mxGeometry>
        </mxCell>
        <mxCell id="QbPGDWv7qYdjSWNrfvIs-123" value="" style="edgeStyle=orthogonalEdgeStyle;elbow=horizontal;strokeColor=#990000;strokeWidth=2;exitX=0.5;exitY=0;exitDx=0;exitDy=0;entryX=1;entryY=0.5;entryDx=0;entryDy=0;" edge="1" parent="1" source="7" target="6">
          <mxGeometry width="100" height="100" relative="1" as="geometry">
            <mxPoint x="787" y="565" as="sourcePoint" />
            <mxPoint x="935" y="471" as="targetPoint" />
          </mxGeometry>
        </mxCell>
        <mxCell id="QbPGDWv7qYdjSWNrfvIs-125" value="&#xa;slave: &#xa;DBWrapper::ApplyCheckPoint:" style="text;spacingTop=-5;align=center" vertex="1" parent="1">
          <mxGeometry x="930" y="280" width="170" height="59" as="geometry" />
        </mxCell>
        <mxCell id="QbPGDWv7qYdjSWNrfvIs-126" value="任何状态" style="whiteSpace=wrap;align=center;verticalAlign=middle;fontStyle=1;strokeWidth=3;fillColor=#FFFFCC" vertex="1" parent="1">
          <mxGeometry x="559" y="30" width="90" height="60" as="geometry" />
        </mxCell>
        <mxCell id="QbPGDWv7qYdjSWNrfvIs-127" value="" style="elbow=horizontal;strokeColor=#990000;strokeWidth=2;entryX=0.5;entryY=0;entryDx=0;entryDy=0;exitX=0.5;exitY=1;exitDx=0;exitDy=0;" edge="1" parent="1" source="QbPGDWv7qYdjSWNrfvIs-126" target="6">
          <mxGeometry width="100" height="100" relative="1" as="geometry">
            <mxPoint x="590" y="100" as="sourcePoint" />
            <mxPoint x="590" y="255" as="targetPoint" />
          </mxGeometry>
        </mxCell>
        <mxCell id="QbPGDWv7qYdjSWNrfvIs-131" value="" style="edgeStyle=elbowEdgeStyle;elbow=horizontal;strokeColor=#990000;strokeWidth=2;entryX=0;entryY=0.5;entryDx=0;entryDy=0;exitX=0;exitY=0.25;exitDx=0;exitDy=0;" edge="1" parent="1" source="2" target="11">
          <mxGeometry width="100" height="100" relative="1" as="geometry">
            <mxPoint x="370.5" y="261.75" as="sourcePoint" />
            <mxPoint x="610.5" y="565" as="targetPoint" />
            <Array as="points">
              <mxPoint x="20.5" y="410" />
            </Array>
          </mxGeometry>
        </mxCell>
        <mxCell id="QbPGDWv7qYdjSWNrfvIs-132" value="slave驱动&#xa;1.slave下载问题&#xa;2.load问题&#xa;" style="text;spacingTop=-5;align=left;" vertex="1" parent="1">
          <mxGeometry x="110" y="210.5" width="180" height="51" as="geometry" />
        </mxCell>
        <mxCell id="QbPGDWv7qYdjSWNrfvIs-134" value="" style="edgeStyle=orthogonalEdgeStyle;elbow=horizontal;strokeColor=#990000;strokeWidth=2;exitX=0;exitY=0.5;exitDx=0;exitDy=0;entryX=0.5;entryY=0;entryDx=0;entryDy=0;" edge="1" parent="1" source="6" target="2">
          <mxGeometry width="100" height="100" relative="1" as="geometry">
            <mxPoint x="935" y="372" as="sourcePoint" />
            <mxPoint x="669" y="201" as="targetPoint" />
          </mxGeometry>
        </mxCell>
        <mxCell id="QbPGDWv7qYdjSWNrfvIs-136" value="master驱动，slave收到master ERROR_NEED_FULL_REPLICATE" style="text;spacingTop=-5;align=center" vertex="1" parent="1">
          <mxGeometry x="280" y="740" width="385" height="20" as="geometry" />
        </mxCell>
        <mxCell id="QbPGDWv7qYdjSWNrfvIs-137" value="Master/slave Open" style="text;spacingTop=-5;align=center" vertex="1" parent="1">
          <mxGeometry x="379" y="161.5" width="170" height="59" as="geometry" />
        </mxCell>
        <mxCell id="QbPGDWv7qYdjSWNrfvIs-138" value="&lt;p style=&quot;margin: 0px; margin-top: 4px; text-align: center; text-decoration: underline;&quot;&gt;&lt;/p&gt;&lt;p style=&quot;margin: 0px; margin-left: 8px;&quot;&gt;RPC：&lt;span style=&quot;font-family: Menlo, Monaco, &amp;quot;Courier New&amp;quot;, monospace; white-space-collapse: preserve;&quot;&gt;RequestFullReplicate&lt;/span&gt;&lt;/p&gt;&lt;p style=&quot;margin: 0px; margin-left: 8px;&quot;&gt;&lt;br&gt;&lt;/p&gt;" style="verticalAlign=middle;align=center;overflow=fill;fontSize=12;fontFamily=Helvetica;html=1;rounded=1;fontStyle=1;strokeWidth=3;fillColor=#99FFFF;" vertex="1" parent="1">
          <mxGeometry x="450" y="815.5" width="149" height="99" as="geometry" />
        </mxCell>
        <mxCell id="QbPGDWv7qYdjSWNrfvIs-139" value="&lt;p style=&quot;margin: 0px; margin-top: 4px; text-align: center; text-decoration: underline;&quot;&gt;&lt;/p&gt;&lt;p style=&quot;margin: 0px; margin-left: 8px;&quot;&gt;&lt;br style=&quot;padding: 0px; margin: 0px; font-weight: 400;&quot;&gt;slave: &lt;br&gt;&lt;/p&gt;&lt;div style=&quot;background-color: rgb(199, 237, 204); font-family: Menlo, Monaco, &amp;quot;Courier New&amp;quot;, monospace; line-height: 18px; white-space-collapse: preserve;&quot;&gt;&lt;font color=&quot;#ff6666&quot;&gt;RPC：SendFullReplicate&lt;/font&gt;&lt;/div&gt;&lt;p style=&quot;margin: 0px; margin-left: 8px;&quot;&gt;ReceiveCheckPointTask&lt;br&gt;&lt;/p&gt;" style="verticalAlign=middle;align=center;overflow=fill;fontSize=12;fontFamily=Helvetica;html=1;rounded=1;fontStyle=1;strokeWidth=3;fillColor=#99FFFF;" vertex="1" parent="1">
          <mxGeometry x="677" y="815.5" width="203" height="99" as="geometry" />
        </mxCell>
        <mxCell id="QbPGDWv7qYdjSWNrfvIs-140" value="" style="edgeStyle=orthogonalEdgeStyle;elbow=horizontal;strokeColor=#990000;strokeWidth=2;exitX=1;exitY=0.5;exitDx=0;exitDy=0;entryX=0;entryY=0.5;entryDx=0;entryDy=0;" edge="1" parent="1" source="QbPGDWv7qYdjSWNrfvIs-138" target="QbPGDWv7qYdjSWNrfvIs-139">
          <mxGeometry width="100" height="100" relative="1" as="geometry">
            <mxPoint x="360" y="875" as="sourcePoint" />
            <mxPoint x="460" y="875" as="targetPoint" />
          </mxGeometry>
        </mxCell>
        <mxCell id="QbPGDWv7qYdjSWNrfvIs-141" value="" style="edgeStyle=orthogonalEdgeStyle;elbow=horizontal;strokeColor=#990000;strokeWidth=2;exitX=1;exitY=0.5;exitDx=0;exitDy=0;entryX=0.5;entryY=1;entryDx=0;entryDy=0;" edge="1" parent="1" source="QbPGDWv7qYdjSWNrfvIs-139" target="7">
          <mxGeometry width="100" height="100" relative="1" as="geometry">
            <mxPoint x="609" y="875" as="sourcePoint" />
            <mxPoint x="687" y="875" as="targetPoint" />
          </mxGeometry>
        </mxCell>
        <mxCell id="QbPGDWv7qYdjSWNrfvIs-142" value="" style="edgeStyle=orthogonalEdgeStyle;elbow=horizontal;strokeColor=#990000;strokeWidth=2;exitX=0.25;exitY=1;exitDx=0;exitDy=0;entryX=0.5;entryY=0;entryDx=0;entryDy=0;" edge="1" parent="1" source="10" target="11">
          <mxGeometry width="100" height="100" relative="1" as="geometry">
            <mxPoint x="250" y="761" as="sourcePoint" />
            <mxPoint x="280" y="810" as="targetPoint" />
          </mxGeometry>
        </mxCell>
      </root>
    </mxGraphModel>
  </diagram>
</mxfile>
